<?xml version="1.0" encoding="UTF-8"?>
<svg width="268px" height="268px" viewBox="0 0 268 268" version="1.1" xmlns="http://www.w3.org/2000/svg" xmlns:xlink="http://www.w3.org/1999/xlink">
	<g stroke="none" stroke-width="1" fill="none" fill-rule="evenodd">
		<g transform="translate(50, 125)  scale(0.2)" id="body/mono/Coffee" stroke="none" stroke-width="1" fill="none" fill-rule="evenodd"> <path d="M394,3 C419,-16 481,-24 507,-6 C533,12 536,42 548,69 C560,63 579,71 582,82 C586,87 586,101 589,107 C712,127 731,223 746,333 C766,443 810,554 791,668 C793,672 795,675 797,680 C802,687 796,698 787,697 C776,696 764,695 753,694 C721,693 688,693 656,694 L652,694 C490,696 329,700 167,701 C161,701 158,696 159,690 C161,680 162,670 164,659 C126,669 85,672 47,660 C44,657 53,659 54,659 C19,635 30,584 33,548 C52,423 59,285 134,179 C166,135 213,101 268,93 L269,93 C285,91 303,90 317,82 C332,69 339,46 356,46 C361,46 368,53 376,57 C377,47 383,38 384,30 L384,30 C385,20 383,12 394,3 Z M659,336 C625,312 535,324 533,325 C529,328 527,328 524,332 C522,333 519,333 517,333 C512,335 516,341 521,339 C518,353 528,363 532,378 C533,382 532,391 532,395 C532,402 539,409 538,415 C534,436 512,457 521,478 C527,490 545,496 557,500 C582,510 626,500 640,478 C648,467 657,438 661,429 L662,415 C665,379 667,341 659,336 Z" id="ðŸŽ¨-Background" fill="#FFFFFF"></path> <path d="M350,44 C352,42 356,44 354,47 C351,54 347,60 342,65 C340,69 337,72 334,75 C341,82 348,90 354,98 C362,108 370,119 379,128 C388,137 398,143 410,147 L412,148 C424,152 437,158 443,169 C445,171 442,174 440,173 C428,165 414,164 402,159 C389,155 379,148 369,138 C360,129 352,119 344,109 C335,99 327,90 317,82 C302,92 285,96 267,101 L266,101 C248,106 231,111 215,118 C200,125 186,132 174,143 C162,155 152,169 144,183 C124,215 110,250 98,286 C85,322 74,360 66,398 C61,417 58,436 55,456 C53,465 52,475 51,484 C50,494 50,505 46,514 C45,519 42,520 39,520 L38,528 C37,539 37,549 36,560 C36,578 36,596 37,613 L37,616 C38,629 41,643 50,653 C61,663 76,666 90,666 C121,666 152,651 180,638 C209,625 237,610 264,593 C278,585 292,577 306,568 C312,563 319,559 326,555 C329,552 333,549 337,547 C335,545 334,542 336,540 C325,530 320,513 319,499 C319,488 321,477 322,466 C323,460 323,454 324,449 C325,447 325,444 325,442 C295,458 264,473 233,486 C216,493 200,499 183,504 L180,505 C164,511 148,516 132,519 C131,519 130,517 131,517 C147,510 163,504 180,498 L182,496 L182,496 C182,496 182,496 181,496 C172,494 162,491 153,488 C144,485 135,483 127,479 C126,479 126,478 127,478 C136,477 146,480 155,481 L158,482 C164,483 169,484 175,485 C175,483 176,482 178,480 C194,468 192,444 194,426 L195,413 C198,389 200,366 204,343 C204,342 206,342 206,343 C206,372 204,400 203,429 L203,434 C202,452 202,470 190,484 C192,483 194,483 195,484 C197,486 198,488 198,490 C208,486 218,482 228,477 C260,463 291,447 322,430 C325,428 328,429 330,432 L330,432 C330,432 330,432 330,432 L331,432 C331,432 331,432 331,432 C335,429 341,431 345,434 C345,435 345,435 345,435 C349,433 354,430 358,426 C366,419 373,410 379,401 C390,384 399,365 414,351 C426,340 441,333 457,329 C457,328 457,328 457,328 C458,327 459,326 460,327 C460,327 460,327 460,327 L462,324 C462,323 463,322 464,321 C465,319 467,317 469,315 C472,311 476,307 480,305 C489,299 499,302 508,305 C514,307 520,309 525,311 L526,311 C530,312 535,314 537,318 C538,320 538,322 537,324 C578,313 622,318 661,330 C663,331 664,332 665,333 C669,356 671,380 669,403 C667,424 663,444 654,462 L654,463 C646,480 633,501 614,507 C603,510 590,508 578,508 C567,507 555,507 543,505 C533,503 524,499 518,491 C513,484 510,475 507,466 C506,467 505,467 504,467 C500,469 496,472 493,475 C486,482 480,491 473,497 C466,503 458,508 450,511 C433,519 415,522 396,526 L395,526 C382,529 368,532 356,540 C355,542 354,544 353,545 C355,547 356,550 354,553 C349,561 340,566 332,571 L331,572 C323,577 315,582 307,587 C291,597 274,607 257,616 C230,631 202,645 174,658 C176,666 175,675 176,683 L177,685 C177,688 176,690 174,692 L174,693 L174,692 L174,693 L174,693 L174,693 C173,693 173,693 173,693 L173,694 L173,694 C171,695 168,695 166,694 L165,694 L165,693 C162,692 160,688 161,685 C164,677 165,668 168,661 L166,661 L166,661 L163,663 C133,676 100,686 68,678 C53,674 40,666 33,652 C25,639 24,624 24,609 C24,591 25,572 27,554 C29,542 31,530 34,518 C32,517 31,515 31,512 C29,501 32,489 33,478 C35,467 36,456 38,445 C42,422 46,400 51,378 C60,339 72,300 86,263 L88,260 C101,225 116,192 137,162 C148,147 158,134 173,124 C186,114 201,107 217,102 C233,96 249,93 265,90 C282,88 300,87 315,80 C313,76 315,72 318,69 C329,62 340,53 350,44 Z M706,364 C707,363 708,364 708,364 C702,387 697,409 694,432 C688,472 689,514 690,555 L690,557 C690,579 690,601 691,624 C691,635 692,646 692,657 C691,663 690,669 689,675 C689,680 689,686 689,691 C690,694 684,694 684,691 L684,687 C683,681 682,676 680,670 C678,664 677,658 677,651 C675,641 675,631 674,621 L674,614 C672,571 672,528 675,485 L676,482 C679,442 684,398 706,364 Z M591,110 C589,109 590,107 591,107 L594,108 C615,113 636,119 655,128 C675,137 691,151 704,168 C730,201 741,242 749,282 C758,327 767,372 776,417 L778,425 C786,467 795,509 801,551 L801,554 C807,598 811,643 804,686 C803,695 789,693 789,684 C791,660 792,635 791,610 C790,586 787,561 784,537 C781,516 777,496 773,475 L772,472 C769,455 766,437 762,420 L758,394 C750,355 743,316 734,277 L734,275 C725,238 713,199 688,169 C663,139 626,124 591,110 Z M499,504 C499,503 501,503 502,504 C505,509 505,515 505,521 L505,521 C506,528 507,534 507,541 C508,553 508,566 508,578 C508,591 508,604 507,616 L507,620 C506,631 505,643 500,653 C498,656 493,655 492,652 C488,640 490,626 491,614 L491,605 C492,596 493,586 493,577 C494,564 495,552 495,539 C495,535 496,530 496,526 L496,520 C497,515 497,509 499,504 Z M91,521 L92,519 C97,515 103,507 111,508 C113,508 115,510 115,513 C113,519 107,522 103,526 C98,530 93,534 89,539 C84,543 80,547 77,551 L75,553 C74,554 64,563 65,565 L65,565 C65,566 65,566 64,566 C60,565 60,561 62,558 C65,550 71,544 75,538 C80,532 85,526 91,521 L91,521 Z M514,343 C511,335 499,336 492,336 C475,337 456,342 440,350 C424,358 414,371 404,386 L404,387 C394,402 385,419 371,429 C363,434 354,439 345,441 C345,442 344,443 342,443 L342,443 C339,444 335,444 332,444 C332,446 332,447 332,449 C332,453 332,458 332,463 C332,472 331,482 332,492 C332,500 333,509 337,517 C340,522 344,526 349,530 C361,522 374,518 388,515 C404,511 421,508 437,503 C445,500 452,497 459,492 C466,487 471,481 477,474 L478,473 C483,467 490,460 498,457 C505,454 514,453 520,448 C523,446 523,442 524,439 C520,439 516,438 512,438 L510,438 C506,437 502,437 499,436 C498,436 498,435 499,434 C503,433 507,433 512,432 L513,432 C517,432 521,431 525,432 C525,429 526,427 528,424 C530,421 534,416 534,412 C534,411 534,410 533,409 L533,408 C533,408 533,407 532,407 C532,407 532,407 532,407 C529,408 526,407 525,404 C519,405 513,405 507,405 L502,405 C496,406 489,406 484,405 C483,404 483,403 484,403 C490,400 499,399 506,398 C510,397 514,397 518,396 C521,396 524,395 527,395 C534,386 530,372 520,368 C517,370 513,369 510,369 C506,368 502,368 498,368 C490,368 481,370 474,369 C472,369 471,367 472,366 C478,362 487,360 495,359 L496,359 C499,358 502,358 505,358 C506,356 507,355 509,355 C510,355 510,355 511,355 L511,355 L511,355 C516,354 515,346 514,343 Z M186,495 C186,495 186,495 186,495 L186,495 L186,495 L186,495 L186,495 Z M598,326 C578,324 557,324 537,325 C535,330 530,334 524,335 C529,341 529,350 526,357 C532,359 538,364 541,370 C546,379 545,389 541,398 C545,401 547,407 547,412 C546,418 543,423 540,428 C537,434 537,439 536,445 C534,453 528,459 520,462 L521,464 C523,471 525,480 531,485 C538,492 549,492 559,493 L560,493 C568,493 577,494 586,494 L592,495 C603,495 612,495 621,489 C634,478 643,460 649,444 C661,410 662,373 656,338 C637,332 617,328 598,326 Z M430,381 L430,381 C434,382 437,385 438,389 C440,395 439,400 442,406 C446,411 448,415 449,422 C449,425 449,427 450,430 L450,432 C450,434 451,436 451,438 C450,440 449,441 448,442 C441,444 436,439 435,433 C433,428 435,422 433,417 C432,415 430,412 429,410 C427,407 427,404 427,401 C426,396 431,389 429,384 C428,383 429,381 430,381 Z M345,325 C349,324 354,322 358,323 C361,324 362,327 360,329 C357,332 352,332 348,333 L347,333 C342,334 337,335 332,336 C322,337 312,339 303,340 C293,341 283,342 273,343 L269,344 C260,344 251,345 243,343 C242,343 242,341 243,341 C252,338 262,338 272,336 C282,335 292,334 302,332 C312,331 322,329 331,327 C336,326 340,326 345,325 Z M501,316 C498,314 493,312 489,313 C482,314 476,321 470,326 L473,325 C487,322 507,319 519,329 C519,329 519,329 519,328 C520,327 521,326 522,325 C522,324 522,324 523,324 L523,323 L522,323 C518,322 515,320 514,320 L514,320 C510,319 506,317 501,316 Z M383,13 C382,5 394,5 394,13 C396,29 392,46 384,60 C384,60 384,60 384,61 C389,63 394,66 399,68 C406,71 412,73 419,76 C426,78 433,78 439,83 C450,91 445,110 443,121 L443,123 C442,129 441,136 444,141 C446,148 452,152 457,157 L458,158 C462,162 467,167 471,172 C473,166 477,161 482,155 C485,151 483,150 480,146 C478,142 477,138 478,134 C479,126 485,121 492,116 C499,111 507,107 515,103 C531,93 546,82 560,70 C560,70 561,70 561,70 C550,87 537,101 521,114 C515,118 508,123 501,127 L499,128 C497,130 493,132 492,135 C491,138 494,140 495,143 C499,151 497,158 492,165 L492,165 C486,172 482,178 481,186 C476,204 482,223 488,239 L488,240 C492,249 495,258 498,267 L499,270 C501,278 503,287 500,295 C499,298 495,299 494,296 C488,286 486,275 483,264 C479,253 475,243 471,232 C467,219 464,204 466,190 C466,190 465,190 465,190 L464,187 C461,180 458,174 452,169 C447,163 440,158 436,152 C425,137 432,120 433,104 L433,102 C433,99 433,94 431,92 C429,89 423,89 420,87 C411,84 403,81 395,77 C387,73 380,68 373,63 L370,61 C364,56 359,52 355,46 C355,46 355,45 356,45 C362,47 368,51 373,55 C373,55 374,54 374,54 C381,41 384,27 383,13 Z M578,100 C580,94 591,94 591,102 C590,108 588,114 585,119 L585,120 C583,126 580,131 576,136 C570,146 562,156 554,165 C547,173 537,177 526,177 C522,176 517,175 513,173 C508,170 503,162 497,164 C496,164 496,163 496,163 C503,157 511,166 518,168 C528,171 539,168 546,159 C553,151 559,141 565,131 C568,127 570,122 573,116 C575,111 576,106 578,100 Z M561,59 C561,58 562,57 563,58 C567,61 571,65 576,69 C580,73 585,76 590,80 C597,86 589,96 583,90 C574,82 565,71 561,59 Z M535,27 C537,20 548,23 547,30 L547,30 C544,42 548,54 557,62 L558,62 C564,67 555,76 549,71 C536,61 531,43 535,27 Z" id="ðŸ–-Ink" fill="#000000"></path> </g>
<g transform="translate(96, 32)  scale(0.2)" id="head/mono/Long-Bangs" stroke="none" stroke-width="1" fill="none" fill-rule="evenodd"> <path d="M406,203 C396,166 356,150 321,147 C225,137 127,191 84,278 C50,343 49,413 123,450 C127,452 131,455 135,457 C139,460 142,464 147,467 C187,493 235,504 283,502 C353,500 378,453 393,392 C409,331 418,265 406,203 L406,203 Z" id="ðŸŽ¨-Background" fill="#FFFFFF"></path> <path d="M452,554 C449,544 444,534 441,525 C440,520 439,515 439,510 C439,492 442,475 446,458 C453,423 461,389 465,353 C472,290 468,224 439,166 C414,116 372,76 317,60 C301,56 285,53 268,52 C266,52 264,52 262,51 C239,48 215,46 192,48 C153,50 114,61 81,83 C49,106 26,137 15,175 C4,215 5,258 -15,295 C-21,306 -27,316 -34,327 C-51,346 -69,367 -73,393 C-78,425 -60,452 -42,477 C-26,500 -5,531 -21,559 C-29,572 -41,582 -50,594 C-60,606 -67,620 -71,636 C-78,664 -72,694 -52,717 C-42,728 -29,736 -15,742 C-1,748 13,754 25,764 C30,769 35,774 40,780 C45,787 50,793 55,799 C62,806 74,797 68,789 C68,789 67,788 67,787 C63,782 59,776 54,771 C41,750 36,724 42,699 C44,693 46,687 49,681 C50,683 51,684 51,686 C54,692 58,700 64,706 C64,711 64,715 66,719 C74,746 100,759 124,769 C126,770 129,771 131,772 C137,774 144,765 140,760 C139,759 138,757 137,756 C126,738 120,718 123,697 C127,675 139,657 152,640 C165,623 178,605 184,585 C190,562 184,539 175,517 C166,498 154,480 144,461 C148,465 151,468 155,471 C159,475 163,479 168,481 C171,483 175,479 172,476 C168,472 164,469 160,465 C156,462 152,458 148,455 C144,450 139,446 135,441 C132,433 129,424 127,415 C124,403 121,390 121,378 C121,365 128,356 137,347 C141,344 144,340 148,337 C156,331 164,324 171,318 C184,306 197,293 209,281 C212,277 216,274 219,270 C230,259 240,247 250,235 C260,231 270,226 279,221 C275,225 271,228 267,232 C258,241 249,250 239,257 C238,258 239,259 240,259 C253,257 265,252 276,245 C288,239 298,229 307,220 C312,217 318,214 322,211 C323,211 323,211 323,211 C318,225 312,242 297,247 C297,247 297,248 297,248 C309,247 319,242 327,234 C333,229 339,225 345,219 C350,214 355,209 360,204 C354,217 346,231 338,244 C338,244 339,245 339,245 C355,234 368,220 378,203 C379,201 380,198 382,196 C381,200 380,204 378,208 C376,215 374,222 372,229 C371,232 369,236 368,240 C367,242 365,245 365,248 C365,248 365,248 365,248 C372,246 378,239 382,235 C385,232 387,229 389,226 C390,243 390,260 390,277 C389,308 387,339 384,370 C382,397 380,426 365,449 C353,468 334,480 314,486 C312,487 310,488 308,488 C278,495 248,487 222,473 C214,468 207,480 214,485 C243,503 280,509 312,501 C311,539 330,576 349,609 C360,627 370,645 378,665 C384,682 389,699 390,717 C392,738 390,760 387,781 C387,782 387,783 387,784 C386,789 390,792 394,790 C414,780 422,758 427,738 C432,719 435,700 437,681 C440,688 442,695 443,703 C444,704 444,705 444,706 C445,713 455,712 457,706 C457,705 457,704 457,703 C465,671 467,637 463,605 C461,587 457,570 452,554" id="ðŸ–-Ink" fill="#000000"></path> </g>
<g transform="translate(128, 69)  scale(0.2)" id="face/Contempt" stroke="none" stroke-width="1" fill="none" fill-rule="evenodd"> <path d="M191,220 C187,224 181,227 175,229 C168,231 161,230 155,228 L155,228 C150,226 146,222 144,218 C143,217 143,215 144,214 C144,212 145,211 147,210 C147,210 148,210 148,210 C149,210 150,210 150,211 C153,213 157,216 161,216 C165,216 167,215 170,213 L172,212 C174,211 176,210 178,210 C182,209 186,210 189,213 C190,214 191,215 192,216 C192,217 191,219 191,220 Z M171,144 C178,149 190,160 182,171 C172,181 158,170 152,164 C145,160 138,171 144,175 C193,212 213,146 175,139 C170,138 169,143 171,144 Z M86,74 L88,73 L90,73 L92,72 C102,70 113,67 123,68 C127,69 130,71 131,75 C131,78 129,82 125,83 C113,85 101,84 89,86 C83,87 77,88 71,89 C67,90 62,91 57,91 L58,91 C59,92 59,92 58,92 C57,92 55,92 54,92 L53,92 C52,92 52,91 52,90 C58,87 63,83 69,80 C74,77 80,75 86,74 Z M179,68 C187,60 204,63 213,67 C219,69 224,71 228,75 L228,76 L229,76 C232,79 235,83 235,87 C235,88 234,88 234,89 C230,89 226,87 223,86 L220,85 C217,84 213,83 210,82 C205,81 201,81 196,81 C192,81 187,82 182,80 C177,78 175,72 179,68 Z M101,132 C99,134 96,136 93,135 C90,134 85,132 81,128 C78,125 76,121 76,117 C75,116 75,116 74,115 C74,115 73,115 72,115 C72,115 71,115 70,115 C69,116 69,117 69,117 C68,123 70,129 74,134 C79,141 86,146 90,147 C97,149 105,147 110,143 C115,139 117,133 119,128 L120,127 C120,126 120,125 121,123 C122,121 122,119 121,117 C120,116 118,114 115,114 C113,114 111,114 109,115 C108,116 107,118 106,120 C106,124 104,129 101,132 L101,132 Z M223,109 C222,108 220,108 219,109 C218,109 217,110 216,110 C215,111 214,112 214,113 C214,116 212,118 210,120 C208,121 206,122 204,122 C201,121 198,120 197,117 C196,117 196,116 195,116 L195,115 C194,114 193,113 192,111 C192,111 191,111 190,111 C190,111 190,111 190,111 C187,114 186,116 187,118 C187,120 188,122 189,124 C192,129 198,132 202,133 C208,134 213,133 218,130 C222,127 225,122 226,116 C227,115 227,113 226,112 C226,111 225,110 223,109 Z" id="ðŸ–-Ink" fill="#000000"></path> </g>
<g transform="translate(120, 99)  scale(0.2)" id="facial-hair/Goatee-1" stroke="none" stroke-width="1" fill="none" fill-rule="evenodd"> <path d="M208,31 C197,26 177,31 170,32 C153,36 136,45 131,59 C125,74 136,79 138,78 C150,79 164,72 176,70 C186,68 196,67 206,62 C212,66 228,68 240,71 C251,74 255,80 265,78 C277,77 272,52 259,42 C245,31 220,27 208,31 Z M230,137 C220,139 220,118 218,110 C218,104 213,89 201,90 C188,90 184,103 184,111 C185,116 190,142 175,145 C165,145 154,145 144,143 C132,140 116,131 112,149 C111,156 163,176 186,178 C210,182 238,175 254,157 C258,153 269,136 270,132 C271,123 268,117 257,120 C249,125 236,135 230,137 Z" id="ðŸ–-Ink" fill="#000000"></path> </g>
<g transform="translate(105, 80)  scale(0.2)" id="accessories/Glasses" stroke="none" stroke-width="1" fill="none" fill-rule="evenodd"> <path d="M389,63 C380,128 313,135 301,71 C303,70 304,68 304,65 C304,51 308,37 321,29 C334,21 349,20 364,20 C393,19 392,44 389,63 M291,35 C282,35 270,35 262,41 C260,35 254,28 248,25 C270,26 292,23 314,22 C309,25 304,31 301,37 C298,35 294,35 291,35 M251,70 C226,156 164,119 157,108 C145,89 142,45 153,33 C168,22 190,25 208,25 C241,25 265,35 251,70 M419,31 C412,30 405,29 398,32 C396,24 390,17 383,14 C382,13 383,13 380,13 C362,8 343,10 326,16 C299,18 271,20 245,23 C220,12 144,10 139,38 C133,37 123,32 118,38 C82,32 44,41 7,45 C-2,46 -7,65 4,64 C10,63 4,53 12,52 C47,48 82,43 117,42 C116,48 141,49 141,45 C141,45 141,45 141,45 C135,68 141,101 152,115 C167,134 207,139 224,127 C246,116 269,61 263,42 C275,39 286,40 299,42 C296,50 291,69 298,71 C297,110 332,134 365,118 C393,105 403,63 399,38 C403,44 432,37 419,31" id="ðŸ–-Ink" fill="#000000"></path> </g>
	</g>
</svg>