<?xml version="1.0" encoding="UTF-8"?>
<svg width="268px" height="268px" viewBox="0 0 268 268" version="1.1" xmlns="http://www.w3.org/2000/svg" xmlns:xlink="http://www.w3.org/1999/xlink">
	<g stroke="none" stroke-width="1" fill="none" fill-rule="evenodd">
		<g transform="translate(50, 125)  scale(0.2)" id="body/mono/Whatever" stroke="none" stroke-width="1" fill="none" fill-rule="evenodd"> <path d="M1017,283 C1027,278 1037,272 1047,266 C1054,262 1048,252 1041,255 C1037,257 1034,259 1030,261 C1033,259 1035,256 1038,253 L1038,253 C1047,245 1035,229 1025,236 C1015,243 1006,249 996,254 C974,263 950,265 926,265 C918,264 909,266 901,267 C904,254 912,244 917,232 C920,219 902,210 895,222 C893,225 892,229 890,232 C876,244 853,243 838,257 C830,264 826,274 825,284 C823,291 825,297 821,303 C802,331 771,375 755,405 C744,333 714,243 684,177 C674,156 662,136 647,118 C649,112 643,101 639,105 C627,90 606,86 589,79 C566,69 547,49 538,26 C526,-18 496,-24 456,-22 C416,-22 388,-5 379,35 C362,65 321,60 291,68 C270,73 249,81 229,90 C207,69 128,157 120,180 C125,181 129,182 133,183 C137,184 135,190 131,189 C127,188 122,187 117,186 C117,187 117,187 117,188 C116,188 116,188 115,188 C117,188 118,189 119,190 C121,192 118,196 115,195 C112,193 109,193 106,192 C106,199 82,191 78,189 C62,187 46,189 30,182 C10,177 -10,173 -30,167 C-35,169 -40,177 -36,182 C-34,184 -37,188 -40,187 C-49,181 -57,172 -64,162 C-67,159 -72,159 -76,158 C-77,159 -77,160 -77,161 C-95,164 -82,183 -73,189 C-78,192 -78,198 -78,203 C-79,205 -79,207 -78,209 C-75,217 -68,223 -62,229 C-57,236 -51,243 -44,248 C-16,270 17,281 51,286 C64,288 81,291 89,301 C87,313 83,325 80,337 C76,353 76,369 76,385 C76,385 74,385 74,386 C73,393 73,399 69,405 C65,415 63,427 61,438 C56,489 55,543 67,594 C71,613 79,631 89,648 C92,653 97,654 102,653 C116,661 135,663 151,662 C205,646 186,683 263,672 C394,655 528,688 659,669 C662,694 705,687 719,676 C763,643 785,539 808,487 C823,445 848,371 882,344 C892,336 904,332 916,328 C961,317 1006,306 1052,294 C1059,292 1058,279 1050,280 C1039,281 1028,282 1017,283 Z" id="ðŸŽ¨-Background" fill="#FFFFFF"></path> <path d="M11,276 C8,275 5,274 2,273 C-3,272 -7,270 -11,269 C-20,265 -29,261 -37,255 C-51,247 -63,236 -71,223 L-72,222 C-77,214 -86,197 -76,191 C-83,186 -89,176 -89,168 C-88,157 -75,157 -68,162 C-63,165 -60,169 -56,173 C-52,178 -48,182 -44,187 C-43,188 -42,189 -41,190 L-39,191 C-40,191 -40,190 -40,190 C-42,182 -39,173 -32,170 C-28,168 -23,169 -19,171 L-18,171 C-12,173 -6,175 -0,177 C24,184 50,185 75,189 C85,190 95,192 105,194 C109,179 118,163 127,151 C175,92 252,72 323,60 C330,58 335,67 339,65 C346,61 352,56 358,50 C370,37 378,22 388,8 C393,1 404,8 399,15 L397,19 C388,34 378,49 365,60 C358,67 350,71 342,74 C335,77 326,79 318,76 L318,75 C318,76 318,76 318,76 C337,104 361,127 386,149 C412,172 439,191 467,211 L469,212 C514,180 552,137 578,88 C573,88 567,84 562,81 C557,78 551,74 547,69 C538,58 539,44 537,30 C537,29 538,29 539,30 C544,34 546,40 548,46 C550,53 553,58 558,62 C563,67 569,70 574,73 C577,74 592,78 594,81 C619,75 644,85 663,102 C681,119 695,141 707,163 C719,186 730,210 738,235 C748,260 754,286 758,312 C761,334 763,357 765,379 L765,382 C784,353 803,323 823,294 C818,282 823,270 832,261 C841,251 854,246 866,240 L868,239 C874,237 880,234 885,230 C890,226 893,220 899,217 C906,212 920,213 920,224 C920,230 918,237 915,243 C912,249 909,255 904,261 C904,261 904,261 904,261 L903,261 C910,262 916,263 922,263 C935,264 948,263 961,260 C974,258 986,253 998,247 C1008,241 1017,234 1028,233 C1029,233 1030,233 1031,232 C1033,232 1035,235 1034,236 C1034,237 1033,238 1033,239 C1029,248 1023,256 1016,262 L1015,263 C1018,262 1020,261 1023,260 C1038,253 1051,243 1068,239 C1068,239 1069,238 1070,238 C1075,237 1077,243 1075,246 C1074,247 1074,247 1073,248 C1066,257 1058,265 1049,273 C1046,275 1043,278 1040,280 C1039,281 1037,282 1036,283 L1035,283 C1037,282 1039,281 1040,280 C1050,277 1060,273 1069,270 C1073,268 1076,272 1076,275 C1078,286 1066,293 1058,298 C1051,303 1042,307 1034,310 C1017,316 1000,319 982,321 L974,323 C941,327 906,333 882,359 C869,373 860,391 851,409 C843,427 836,445 829,463 C822,482 816,501 809,521 C803,538 796,555 788,573 L787,575 C772,612 754,646 728,677 C724,682 717,675 721,670 C748,635 766,595 782,554 C789,536 794,517 801,499 L805,488 C810,473 816,459 821,444 C828,426 836,408 845,390 L846,388 C855,371 865,355 879,342 C905,319 939,313 972,309 L982,308 C996,306 1010,304 1024,300 C1032,298 1039,295 1046,291 C1049,290 1052,288 1055,286 C1047,289 1039,290 1031,292 C1027,293 1023,293 1020,293 C1010,294 1000,294 990,294 C989,294 989,292 990,292 C997,291 1004,289 1011,288 L1013,287 C1013,286 1013,285 1014,284 C1018,279 1024,277 1029,274 C1034,271 1039,268 1043,264 C1047,261 1051,257 1055,254 L1056,252 C1056,253 1055,253 1055,254 C1045,258 1035,264 1024,268 C1016,271 1007,273 998,274 L998,274 L997,274 C988,274 978,274 969,276 C968,276 968,275 969,275 C977,271 985,270 993,268 C994,268 994,267 995,267 L997,266 C1004,263 1010,260 1015,255 C1020,250 1024,245 1026,239 C1015,242 1004,251 994,256 C982,261 969,265 957,267 L955,268 C932,272 903,271 882,259 C881,258 881,257 882,258 C888,259 894,260 900,261 C899,260 898,258 900,256 C905,250 909,243 912,235 L913,234 C914,230 916,225 914,222 C912,218 907,219 904,220 C898,223 894,230 889,234 C883,238 877,242 871,245 L869,245 C858,250 846,254 837,263 C833,268 829,274 827,281 C827,284 827,287 827,290 C828,292 830,294 829,296 C828,299 824,303 822,306 C820,309 818,312 816,315 C811,322 807,328 803,335 C794,348 786,360 778,373 C775,378 772,382 769,386 L765,392 L763,396 L760,402 C760,402 760,403 760,403 C759,405 758,406 756,407 L756,407 C735,441 714,475 692,509 C691,519 690,529 689,540 C687,563 686,586 685,610 C685,621 686,633 687,644 C687,649 687,655 688,660 L688,664 C688,669 689,675 687,680 C685,684 680,685 677,682 C637,680 598,679 558,678 C487,677 417,677 346,678 C310,679 275,680 239,681 C221,682 204,683 186,683 C177,683 162,680 161,669 L161,669 C160,669 159,669 158,669 C157,669 157,669 156,669 L156,669 C142,674 124,667 111,664 L109,664 C97,660 86,655 78,645 C63,626 58,601 56,579 C53,557 53,535 56,513 C54,496 56,478 58,460 C59,452 60,443 62,435 C62,430 63,425 64,420 C65,418 65,416 66,414 L66,414 C64,414 63,413 61,412 C57,410 56,406 56,402 C55,389 57,375 58,363 C60,350 62,337 64,324 L65,321 C67,312 69,302 72,293 C58,290 44,288 31,284 C24,281 17,279 11,276 Z M748,410 C747,410 747,410 747,410 C741,412 736,413 730,414 C720,417 710,420 701,424 C699,448 697,472 694,496 L693,501 C697,493 702,486 706,478 C720,455 733,432 748,410 Z M69,412 C69,415 69,418 69,421 C68,425 68,430 67,434 C66,443 65,452 64,461 C64,467 64,473 63,479 C69,457 77,437 84,416 C83,416 81,416 80,415 L78,415 C77,414 73,413 69,412 Z M765,392 L765,393 C766,397 764,399 761,399 C763,397 764,395 765,392 Z M117,233 C123,233 128,235 134,237 L135,237 C139,239 145,241 146,245 C146,246 145,247 144,247 C140,248 134,243 130,241 C126,239 121,238 116,237 C105,236 93,237 83,241 C82,241 82,240 83,240 C93,234 105,232 117,233 Z M-10,261 C-11,261 -11,260 -12,259 C-17,254 -22,248 -26,242 L-27,240 C-29,235 -33,227 -26,223 C-22,220 -17,221 -13,222 C-13,223 -12,223 -12,223 C-10,223 -8,224 -6,225 C1,228 8,233 15,238 C22,243 29,246 38,247 L39,248 C47,249 56,250 61,257 C63,259 62,262 59,261 C43,256 27,255 13,246 C7,242 1,238 -5,235 C-8,233 -12,231 -15,230 L-17,230 C-18,229 -20,229 -20,229 C-22,230 -22,231 -21,233 L-21,233 C-17,246 -5,257 6,264 C9,266 11,267 14,268 C32,278 52,283 72,288 C80,290 85,291 87,292 C92,292 96,293 100,295 C103,297 105,299 107,302 C107,302 109,303 109,306 C110,308 111,310 111,313 C111,314 111,315 110,316 C112,347 104,379 94,408 L93,411 L93,413 C82,445 70,476 65,509 C62,531 62,554 64,576 L65,578 C67,599 72,622 85,639 C92,648 100,651 110,654 L111,654 C120,657 130,660 139,661 C148,662 156,659 164,656 L164,656 C181,641 188,619 194,597 C209,540 207,482 199,424 C194,394 188,364 182,334 C180,319 176,304 174,289 L172,281 C171,276 170,271 170,266 C169,259 168,253 168,246 C160,233 148,222 135,214 C125,208 115,204 104,201 C74,193 41,194 10,187 C-0,185 -10,182 -20,178 L-21,178 C-26,176 -30,175 -32,180 C-34,184 -33,188 -31,191 C-25,199 -13,203 -4,205 C1,207 6,208 12,209 C17,210 23,211 28,213 C30,213 30,216 28,217 C21,219 15,217 8,216 C1,215 -6,213 -13,210 C-15,209 -16,209 -17,208 L-18,208 C-17,209 -16,210 -15,210 C-15,210 -15,211 -15,211 C-32,205 -46,194 -58,181 L-59,180 C-63,176 -72,161 -80,165 C-87,169 -74,183 -70,189 L-69,190 C-64,190 -59,193 -54,196 C-47,201 -39,205 -31,208 C-15,216 2,221 18,229 C18,229 18,229 18,229 C8,228 -2,225 -12,222 L-12,222 L-13,222 C-19,220 -25,218 -31,215 C-37,212 -44,209 -50,206 C-56,203 -62,197 -68,197 C-69,197 -70,196 -70,197 C-78,197 -71,210 -69,213 C-66,219 -62,225 -57,230 C-47,241 -36,249 -23,255 C-19,258 -14,260 -10,261 Z" id="ðŸ–-Ink" fill="#000000"></path> </g>
<g transform="translate(96, 32)  scale(0.2)" id="head/mono/Bear" stroke="none" stroke-width="1" fill="none" fill-rule="evenodd"> <path d="M403,205 C421,194 446,164 432,142 C426,133 419,129 410,129 C408,127 405,126 402,126 L402,126 C390,126 379,130 369,137 C363,132 356,129 349,125 C352,110 356,95 362,81 C364,72 355,63 347,66 C349,57 344,46 334,46 C328,46 322,49 317,51 C313,52 309,53 305,54 C305,54 305,54 305,54 C315,47 315,31 300,32 C294,33 287,37 281,40 C272,40 262,43 253,45 C228,52 200,58 179,74 C143,88 97,110 93,153 C28,128 -20,208 38,239 C50,244 63,247 75,244 C72,255 70,266 67,277 C45,328 27,382 33,439 C33,449 46,455 53,447 C59,440 67,448 65,455 C63,463 68,470 76,470 C86,471 93,465 100,459 C100,459 100,459 101,458 C117,497 133,467 153,485 C158,489 161,494 167,497 C182,504 193,491 207,490 C219,489 232,493 244,496 C258,500 272,502 287,500 C306,498 343,489 354,483 C367,492 381,481 389,468 C394,473 403,474 408,467 C412,458 420,445 428,447 C429,447 430,447 430,448 C438,455 449,449 450,439 C458,372 442,306 421,243 C416,230 412,216 403,205 Z" id="ðŸŽ¨-Background" fill="#FFFFFF"></path> <path d="M396,204 C396,203 397,202 398,203 C413,229 425,257 435,286 C445,311 453,336 459,363 L459,365 C465,390 467,417 460,442 L460,443 C458,449 456,454 451,458 C447,461 442,461 437,460 C432,459 429,458 424,457 C421,457 420,458 419,461 L419,463 C415,472 411,481 401,483 C395,484 389,482 384,479 C384,480 384,480 384,480 L383,481 C382,485 381,489 378,492 C374,496 369,498 363,496 C361,496 358,495 356,494 C355,497 351,500 347,499 C345,499 344,498 343,497 C337,501 329,504 322,505 C313,508 302,509 292,509 C282,508 272,506 262,503 L261,502 C252,499 244,495 237,490 C236,489 236,487 238,487 C247,490 256,493 265,495 C274,496 283,496 292,496 C301,495 310,493 319,491 C327,488 334,484 343,483 C343,483 343,482 344,482 C351,475 358,478 366,481 C366,481 366,481 366,481 L366,481 L366,481 L367,481 L366,481 C366,481 367,480 367,480 L367,480 C368,477 368,474 369,472 C371,466 374,460 381,459 C384,458 388,459 390,463 C391,465 393,467 396,467 C400,467 401,465 402,462 C404,457 405,452 408,448 C411,444 416,441 422,441 C426,441 431,442 435,443 L435,443 C437,444 441,445 442,444 C444,443 446,434 446,431 L446,430 C448,425 448,419 448,414 C450,390 445,366 439,343 C428,295 413,249 396,204 Z M77,262 C77,261 78,262 77,262 C76,264 76,267 75,269 C74,272 73,274 72,277 C70,281 69,285 67,289 C64,297 61,306 58,314 C52,331 47,348 44,366 C40,383 37,401 37,419 C37,427 38,435 41,443 C42,444 43,445 43,446 L44,447 C44,447 44,447 44,447 L44,448 C45,446 48,444 49,443 L49,443 L55,438 C57,435 61,435 64,437 C73,442 73,451 74,460 L75,460 C75,464 77,467 81,466 C86,465 89,461 90,457 L90,456 C93,449 102,449 105,456 L106,459 C108,464 111,471 117,473 C121,475 127,472 131,471 C133,470 136,472 137,474 C137,475 137,475 137,476 C141,475 146,476 150,478 C156,481 163,487 164,493 C165,501 156,505 152,498 C149,494 148,490 144,486 C142,484 139,482 137,480 C134,489 121,491 113,489 C105,486 100,481 96,474 C89,481 79,484 70,478 C64,475 61,469 60,462 C60,460 60,457 59,454 L59,455 C54,460 48,464 42,463 C34,462 30,453 27,446 C22,431 23,415 25,400 C27,383 30,367 34,350 C39,335 44,319 51,305 C54,297 58,290 62,282 C64,279 67,275 69,272 C71,268 74,265 77,262 Z M27,159 C39,148 55,142 72,145 C80,146 87,149 93,153 C100,157 104,163 108,170 C109,170 108,171 108,170 C97,160 81,155 67,156 C41,157 20,179 22,205 C23,217 30,230 41,237 C52,244 66,241 78,238 C82,237 85,242 82,245 C70,261 44,257 29,246 C1,225 2,182 27,159 Z M68,184 L69,184 C78,182 97,181 100,192 C102,197 96,200 91,200 C87,200 83,199 79,198 C78,202 78,206 77,210 C77,214 71,213 71,209 C71,204 73,200 77,197 C76,197 75,197 74,197 C64,196 54,198 45,202 L46,202 L46,202 C47,202 46,203 46,203 L41,203 L41,203 C39,204 38,201 39,200 C47,192 57,186 68,184 Z M399,125 C413,123 427,128 434,140 C441,152 442,166 437,178 C434,185 430,191 425,197 C422,199 419,202 416,204 C412,206 409,206 405,205 C403,204 401,201 402,199 L402,197 C403,195 404,193 405,191 C407,190 409,189 411,187 C414,184 418,180 421,176 C425,169 427,160 424,151 C421,142 414,136 404,135 C399,134 393,135 388,136 L384,136 C380,137 376,138 373,142 C372,143 372,143 372,142 C370,138 375,133 378,131 C384,127 392,126 399,125 Z M339,119 C338,118 338,117 340,117 C355,123 368,137 377,151 C380,155 382,159 384,163 C388,160 392,157 397,155 L397,155 C402,153 413,149 416,156 C417,158 417,160 415,162 C412,164 408,163 405,163 C398,163 392,166 386,168 C388,170 389,172 390,175 C391,178 392,182 393,185 C395,188 397,191 399,193 C402,197 398,203 394,203 C385,202 381,194 379,186 L377,182 C375,175 373,169 370,162 C366,154 361,146 356,139 C350,132 344,126 339,119 Z M315,24 C320,22 325,30 322,34 C320,39 318,43 318,47 L343,41 L343,41 C348,40 353,45 351,50 L347,64 L347,64 C352,63 358,62 363,61 C368,61 370,66 369,70 C368,78 366,86 363,94 L361,99 C358,106 355,113 349,116 C346,118 342,116 342,112 C342,104 347,97 350,90 C352,85 353,81 354,76 C350,77 345,79 341,82 L340,83 C335,86 329,81 330,75 L330,75 L335,57 L313,63 L313,63 C308,64 304,61 304,56 C304,51 304,47 305,42 C290,47 275,50 259,54 L257,54 C224,62 189,68 159,84 C145,91 133,100 121,110 C116,115 111,121 106,127 C104,130 102,132 100,136 L99,138 C98,139 97,140 97,142 L97,142 C97,143 96,145 96,146 C97,147 99,150 101,149 C101,149 102,149 101,149 C100,151 98,152 95,151 C92,149 91,146 91,142 C92,133 98,124 103,116 C123,87 156,69 189,58 C230,44 274,40 315,24 Z" id="ðŸ–-Ink" fill="#000000"></path> </g>
<g transform="translate(128, 69)  scale(0.2)" id="face/Rage" stroke="none" stroke-width="1" fill="none" fill-rule="evenodd"> <path d="M156,188 C177,188 215,191 231,204 C247,216 227,254 224,254 C201,253 179,257 156,260 L151,260 C136,263 115,266 107,249 C98,218 126,188 156,188 Z M193,201 C181,200 168,199 156,201 C145,202 134,205 127,213 C129,213 131,215 132,216 C146,217 162,216 177,217 C185,217 194,218 202,217 C209,217 207,211 208,206 C203,204 198,202 193,201 Z M58,86 C73,61 117,76 140,81 C157,78 159,106 141,103 C150,117 147,136 134,146 C99,175 37,128 80,95 C80,91 86,90 89,88 L88,88 C79,86 69,84 59,87 C58,87 58,86 58,86 Z M179,136 C186,141 198,152 190,163 C180,173 166,162 160,156 C153,152 146,163 152,167 C201,204 221,138 183,131 C178,130 177,135 179,136 Z M256,59 C257,59 257,60 257,60 C248,69 236,76 226,84 C242,85 258,98 263,114 C268,139 231,151 211,143 C195,138 184,122 192,105 C183,105 174,93 181,87 C187,80 194,84 196,83 L199,81 C217,72 236,62 256,59 Z M132,110 C120,92 74,92 76,120 C78,157 151,149 132,110 Z M226,95 C217,93 210,103 205,100 C178,131 233,149 251,125 C261,113 238,95 226,95 Z M111,112 C122,108 122,125 114,128 C104,132 101,112 111,112 Z M212,114 C212,103 227,99 231,109 C236,123 213,130 212,114 Z" id="Shape" fill="#231F20"></path> </g>
<g transform="translate(120, 99)  scale(0.2)" id="facial-hair/Moustache-8" stroke="none" stroke-width="1" fill="none" fill-rule="evenodd"> <path d="M520,-59 C504,-44 515,-7 521,-17 C522,-26 525,-44 534,-47 C602,-50 588,118 461,98 C380,92 294,-25 218,46 C136,-21 42,80 -43,94 C-112,116 -216,75 -197,-10 C-193,-36 -158,-64 -137,-39 C-130,-33 -138,-11 -132,-15 C-122,-27 -124,-45 -134,-56 C-149,-75 -177,-66 -194,-53 C-267,19 -179,128 -90,121 C7,133 139,-2 206,63 C213,70 225,70 231,63 C288,-1 397,130 476,121 C561,129 628,27 579,-45 C567,-63 538,-77 520,-59 Z" id="ðŸ–-Ink" fill="#000000"></path> </g>
	</g>
</svg>