<?xml version="1.0" encoding="UTF-8"?>
<svg width="268px" height="268px" viewBox="0 0 268 268" version="1.1" xmlns="http://www.w3.org/2000/svg" xmlns:xlink="http://www.w3.org/1999/xlink">
	<g stroke="none" stroke-width="1" fill="none" fill-rule="evenodd">
		<g transform="translate(50, 125)  scale(0.2)" id="body_x2F_mono_x2F_Tee-1"> <path id="_xD83C__xDFA8_-Background" fill-rule="evenodd" fill="#FFFFFF" d="M774,553c-4-23-8-46-11-69 c-2-11-3-22-5-33c-1-8-3-16,3-22c7-8,14-15,15-26c1-11-3-22-5-33 c-5-22-11-43-17-65c-7-22-14-43-21-65c-7-20-14-40-23-60c-17-37-46-64-82-82 c-9-5-27-21-36-24c-9-3-9,6-17,3c-7-3-13-7-17-13c-4-7-14-17-16-25 c-3-17,0-32-12-45c-11-12-26-20-41-24c-34-9-79-3-99,28c-10,15-13,33-26,45 c-11,11-9,18-24,23c-1,0-24-5-24-4c-16-4-32,6-47,12c-22,8-43,19-63,32 c-40,26-74,60-102,99c-28,39-51,82-66,128c-4,11-7,22-10,34c-2,6-4,13-1,19 c2,5,5,9,10,12c6,4,18,7,18,16c-0,7-2,14-4,20c-1,8-2,16-3,23 c-5,35-9,71-10,107c-2,35-3,71-1,106c0,2,1,4,2,6c-1,0-1,2,0,3c1,0,2,0,3,1 c2,1,4,2,7,2c2,0,4,0,6,0c19,4,39,8,58,11c24,4,48,6,72,9 c49,5,98,3,147,1c49-3,98-3,147-2c49,1,98,3,148,4c55,1,110-1,165-5 c8-1,12-7,11-14C792,642,782,598,774,553z"/> <path id="_xD83D__xDD8D_-Ink" fill="#000000" fill-rule="evenodd" d="M301,64c5-0,10,1,15,1c0,0,1,1,0,1 c-9,2-18,5-27,7l-4,1c-10,3-20,6-30,10c-19,8-38,19-55,31C136,162,89,233,59,307 C51,327,44,348,39,369c-1,5-3,10-4,15c-0,2-2,5-1,7c1,1,4,2,5,3l5,2 c9,5,24,12,25,13l2,1c38,19,78,34,121,35l0-4l0,0c2-20,4-40,10-60 c0-1,2-1,2,0c3,23,2,46,1,70c-2,41-4,82-7,123c-1,21-3,41-4,62 c-1,21-2,42-5,62c-1,5-6,7-10,7c-5-1-8-5-8-9c-0-12,1-24,2-36c1-11,2-23,3-34 c3-41,7-82,10-123c1-15,3-29,4-44c-45-2-87-18-128-38c-1,13-2,27-3,40 c-4,37-7,74-10,111c-1,19-2,37-3,56c-0,9-1,18-1,28c-0,3-0,6-0,9l-0,7 c-0,4-1,9-4,12c-4,3-9,4-13,0c-5-5-4-11-4-17c0-5,0-11,0-16c0-11,1-21,1-32 c2-37,6-73,11-110l2-14c4-26,8-53,16-78c-3-2-6-3-9-5c-6-3-11-5-17-9 c-4-2-8-6-9-11c-1-6,1-12,2-17l0-1c1-5,3-11,4-16c6-22,14-43,22-64 c18-42,40-81,68-117c25-32,54-61,89-83c17-11,35-20,54-26c9-3,19-5,28-7 C291,64,296,64,301,64z M391-2c6-7,18,0,15,9c-7,20-18,39-35,52 c-16,13-35,21-55,19c-0,0-0-0-0-0l2,2c14,19,29,37,46,53c36,31,85,48,132,36 c37-9,70-39,80-76c-1,1-3,1-5,0c-8-2-15-10-20-16c-5-6-10-13-13-21 c-6-14-7-32,0-46c1-2,3-1,3,1l0,3c2,13,3,25,9,37c3,6,7,11,11,16 c2,3,5,5,8,7c3,2,6,4,8,6l0,1l0-0c1-5,4-7,8-7c3,0,7,2,9,2l0,0 c23,11,45,26,65,42c42,34,73,77,88,129c8,25,12,51,16,77l3,16c4,24,9,48,18,71 c3,6,1,11-6,14c-8,3-15,6-23,8c4,16,6,33,9,49c6,34,13,68,19,102 c3,17,6,35,9,52c2,8,3,17,5,25c1,5,2,9,2,14l0,1c1,2,1,5,0,7 c-1,3-3,5-5,7c-2,2-4,2-6,1l-1-0c-3-2-6-3-7-7c-1-2-1-5-2-8 c-1-5-2-10-3-15c-2-10-3-19-5-29l-2-9c-5-31-10-63-13-95c-1-14-2-28-4-42l-1-11 c-1-13-3-27-3-41l-5,2l0,0l-22,8l0,0c-6,2-13,6-18,5c-3-0-5-1-7-3 c2,29,5,57,9,86c3,26,7,52,11,78c2,13,4,26,7,38c1,6,3,13,4,19c1,3,1,6,2,10 c1,4-0,6-3,9c-2,3-5,4-8,2c-4-2-6-4-7-8c-1-4-2-8-2-11c-1-7-3-14-4-21 c-3-15-5-29-7-44c-8-52-13-104-15-157c-1-26-2-52-1-78c0-13,1-27,2-40 c1-13,3-27,5-40c0-1,1-1,1,0c1,15,2,30,3,45c1,14,1,29,1,43 c1,19,2,38,3,56c2-2,5-4,9-3c5-1,10-3,14-5l17-6l0,0c9-3,18-6,26-9 c-8-27-13-54-18-81l-2-12c-4-24-9-48-16-72c-8-25-19-48-35-68 c-15-20-34-39-53-55c-16-14-34-27-50-42c0,1,0,2,0,3c-4,26-17,50-36,68 c-38,36-94,43-142,27c-47-16-88-55-103-103c-0-1,1-1,1-1c1,1,2,2,2,3 c-0-0,0-1,1-1c17-7,34-16,47-29c6-6,12-14,16-22c2-4,4-8,5-12l0-1 C386,7,388,2,391-2z"/> <path id="path3922" fill="#231F20" d="M453,259c-0,0-1,0-1,1l-52,69c-1,1-1,2,0,1l110-6 c2-0,2-0,1-1l-58-63C454,259,453,259,453,259L453,259z M464,264l53,58c1,1,1,1,2,0 l26-13c2-1,1-1,0-2L464,264z M441,267c0,0-0,0-1,1l-70,51l23,9c1,0,2,0,2-1 l45-59C441,268,441,267,441,267L441,267z M465,290c3-0,6,1,8,3c2,2,3,5,4,9 c1,4,0,7-2,9c-2,2-4,3-7,4c-3,0-6-1-8-3c-2-2-3-5-4-9c-1-4,0-7,2-9 C459,292,462,290,465,290z M444,292c3-0,5,0,7,2c2,1,2,3,2,5c-0,1-1,3-1,4 c-1,1-2,3-5,5l-6,5l11-1l-0,5l-18,1l1-5l10-8c1-1,2-2,2-2c0-1,1-2,1-2 c0-1-0-2-1-3c-1-1-2-1-3-1c-1,0-2,0-3,1c-1,1-3,1-4,2l1-5c2-1,3-1,4-1 C441,292,443,292,444,292L444,292z M465,294c-1,0-2,1-3,2c-0,1-1,3-0,6 c0,3,1,5,2,6c1,1,2,2,3,2c1-0,2-1,3-2c0-1,1-3,0-7c-0-3-1-5-2-6 C468,295,467,294,465,294z M406,301c1,0,1,0,1,0c0,1,0,2-1,4c-1,2-3,4-4,5 c-2,1-3,2-5,3c-1,1-2,1-3,0c-1-0-1-1-0-2c-1,1-2,2-3,3c-1,1-2,1-3,2 c-2,1-3,1-3,0c-0-1,0-2,1-4c1-2,2-3,4-5c1-1,3-2,5-3c1-0,2-1,2-0 c1,0,1,1,0,1c1-1,2-2,3-3c1-1,2-2,4-2C404,301,405,301,406,301L406,301z M517,296 c1,1,2,2,3,2c1,1,2,2,2,2c2,2,2,3,3,4c0,1-1,2-2,2c-1,0-2-0-3-1 c-1-0-3-1-5-2l-6-3l6,6l-3,0l-10-10l3-0l9,5c1,0,2,1,2,1c1,0,1,0,2,0 c1,0,1-0,1-1c0-1-0-1-1-2c-1-1-1-1-2-2c-1-1-2-1-3-2L517,296L517,296z M402,305 c-0,0-1,0-1,0c-1,0-2,1-3,1c-1,1-1,1-2,2c-0,1-1,1-0,1c0,0,1,0,2-0 c1-0,2-1,3-1c1-1,1-1,2-2c0-1,1-1,0-1C403,305,403,305,402,305L402,305z M393,309c-0,0-1,0-1,0c-1,0-1,1-2,1c-1,1-1,1-2,2c-0,1-0,1-0,1 c0,0,1,0,2-0c1-0,1-1,2-1c1-1,1-1,2-2c0-1,1-1,0-1C394,309,394,308,393,309 L393,309z M548,311c-0,0-1,0-1,0l-26,14c-1,1-1,1-1,2l35,78l-7-92 C549,312,549,311,548,311L548,311z M368,323l2,90l23-79c0-1,0-1-1-2L368,323 L368,323z M513,327l-113,6c-2,0-2,0-1,1l62,94c1,1,1,1,2-0l50-100 C514,328,514,327,513,327L513,327z M517,330c-0,0-0,0-1,1l-50,100c-1,1-1,1,1,1 l87-17c1-0,1-1,1-2l-38-83C517,330,517,329,517,330L517,330z M396,337 c-0,0-0,1-0,1l-24,84c-0,2-0,2,1,3l85,8c2,0,1-1,1-1l-62-94 C396,337,396,337,396,337L396,337z M549,330l0,3l-3,2l1,13l3-3l0,3l-3,3l-3,2 l-2-16l-1,1l0,1c-1-0-1,0-2,0c-1,0-1,0-2,1c-1,1-1,1-2,2c-0,1-1,2-1,2 c0,1,0,1,1,2c1,0,1-0,2-1l1-1l0,3l-1,1c-1,1-1,1-2,2c-0,1-1,1-0,2 c0,1,0,1,1,1c0,0,1,0,2-1c1-0,1-1,2-1c1-1,1-1,1-2l0,4c-1,1-1,1-2,2 c-1,1-1,1-2,2c-2,1-3,2-4,1c-1-0-1-1-2-3c-0-1,0-2,0-3c0-1,1-2,2-3 c-1,0-2,0-2-0c-1-1-1-1-1-3c-0-2,0-4,1-5c1-2,2-3,4-4c1-0,1-1,2-1 c0-0,0-0,0-0l0,0L549,330L549,330z M372,346c0,0,1,0,1,0c1,1,2,2,3,4 c0,0,0,0,0,0l0-2l6,3l-0,3l-2-1l-0,11l2,0l-0,3l-2-0l-2-1l0-14l-2-1 c0,2,1,3,1,6c-0,3-1,5-1,6c-1,1-2,2-3,1c-0-0-1-1-1-1c-0-0-1-1-1-1 l0-3c0,1,1,1,1,1c0,0,1,1,1,1c1,0,1,0,2-0c0-1,1-2,1-3c-0,0-1,0-1,0 c-0,0-1,0-1-0c-1-1-2-1-2-3c-1-1-1-3-1-5c0-2,0-3,1-4 C371,346,371,346,372,346L372,346z M372,349c-0,0-0,0-0,0c-0,0-0,1-0,2c0,1,0,2,0,2 c0,1,1,1,1,1c0,0,1,0,1-0c0-0,0-1,0-2c0-1,0-2-0-2c-0-1-1-1-1-1 C373,349,373,349,372,349L372,349z M439,352l6-0l0,4l11-1l0,5l-9,15l-7,0l-1-15 l-4,0l-0-5l4-0L439,352z M459,350l17-1l0,4l-6,0l1,16l6-2l0,4l-6,2l-6,0 l-1-20l-6,0L459,350L459,350z M445,360l1,10l6-11L445,360z M404,381l4,5l-2,1 c0,0,1,0,1,0c2,1,5,2,7,5c2,3,3,5,3,8c-0,3-2,5-5,7c-3,2-6,3-9,2 c-3-1-6-2-8-5c-1-1-2-2-2-3c-1-1-1-2-2-3l3-2c0,1,1,2,1,3c1,1,1,2,2,3 c1,2,3,3,4,3c2,0,3,0,5-1c-1-0-2-1-3-1c-1-1-2-1-2-2c-2-2-3-4-3-6 c0-2,1-4,3-5c1-0,1-1,2-1l-3-4L404,381L404,381z M511,383l5,3l8,17l-3,6l-14-9 l-2,3l-4-3l2-3l-4-3l3-5l4,3L511,383L511,383z M408,392c-1,0-1,0-2,1 c-1,1-2,2-2,2c-0,1,0,2,1,3c1,1,2,2,3,2c1,0,2-0,3-1c1-1,2-2,2-2 c0-1-0-2-1-3c-1-1-2-2-3-2C409,392,408,392,408,392L408,392z M513,389l-3,6l9,6 L513,389z M379,429l85,43c1,1,1,0,1-1l-3-33c-0-1-0-2-1-2L379,429L379,429z M549,420l-83,16c-1,0-1,1-1,2l4,33c0,1,0,1,1,1L549,420z M497,438l7,7l5-3 l1,1l-12,8l-2,1l-12,8l-1-1l5-3l-5-5l-4,4l-1-1l4-4l5-3l7,7l3-2l2-1l3-2 l-5-5l-4,4l-1-1l4-4L497,438L497,438z M442,441c2,0,3,1,5,1c2,1,2,2,2,4 c-0,1-1,3-3,4c-1,1-2,2-4,2l2,1l-3,2l-3-2l1-1c-2,0-3-1-5-2c-1-0-1-1-2-1 c-0-0-1-1-1-1l2-2c0,1,1,1,1,1c0,0,1,1,1,1c1,1,2,1,3,1c1,0,2-0,3-1 c-1,0-1-0-2-0c-1-0-1-0-2-1c-1-1-2-2-2-3c0-1,1-2,2-3 C439,442,441,441,442,441L442,441z M443,444c-1,0-1,0-2,1c-1,1-1,1-1,2 c-0,0,0,1,1,1c1,0,1,1,2,1c1-0,1-0,2-1c1-1,1-1,1-1c0-1-0-1-1-1 C444,444,444,444,443,444L443,444z"/> </g>
<g transform="translate(96, 32)  scale(0.2)" id="head/mono/Gray-Short" stroke="none" stroke-width="1" fill="none" fill-rule="evenodd"> <path d="M287,509 C265,510 246,503 232,493 C214,486 192,477 179,466 C174,468 168,462 164,459 C140,441 120,414 115,388 C106,399 93,399 81,394 C56,379 57,349 66,327 C47,285 34,172 63,127 C69,120 78,116 84,109 C90,103 95,97 101,92 C121,77 155,69 177,65 C266,46 334,80 415,110 C410,121 403,132 396,142 C416,149 407,166 391,174 L382,170 C397,221 430,350 415,391 C404,455 354,510 287,509" id="ðŸŽ¨-Background" fill="#FFFFFF"></path> <path d="M300,515 C271,518 237,511 218,488 C217,487 217,486 217,485 C217,485 217,484 218,483 C218,482 219,482 220,482 C221,482 222,482 222,482 L224,483 C237,491 251,497 266,499 C281,502 297,502 312,498 C339,492 362,476 378,455 C397,431 408,401 411,371 C414,335 406,299 398,263 C389,226 380,190 369,153 C369,152 369,151 369,150 C365,149 362,149 359,150 C352,152 346,157 341,161 C339,163 337,164 336,165 C329,169 322,172 315,173 C306,173 298,171 291,168 C287,166 283,164 280,163 C269,158 259,153 248,150 C232,146 217,144 201,144 C173,145 145,152 127,176 C120,185 116,196 119,208 C121,215 125,221 129,226 L130,228 C133,231 134,234 135,237 C135,239 135,242 133,245 C132,247 131,249 129,251 C128,252 127,253 126,254 C124,257 122,260 121,263 C118,269 117,275 117,282 C117,289 118,297 119,304 C120,310 121,315 121,321 C121,322 121,322 120,323 C120,323 119,324 118,324 C118,324 118,324 117,324 C117,325 118,325 118,326 C117,325 117,324 116,324 C116,324 116,324 116,324 C115,323 115,323 114,322 C114,321 113,321 112,320 C107,316 101,314 96,314 C90,314 85,316 81,320 C73,328 70,340 70,351 C70,362 72,375 82,382 C86,385 91,387 96,387 C99,387 103,385 107,384 C108,384 109,383 110,383 C112,382 113,382 114,383 C115,383 116,384 117,385 C118,386 118,387 118,388 C118,389 118,391 118,392 C117,392 117,392 117,393 L119,396 C127,409 136,422 147,434 C153,441 159,447 167,452 L168,453 C168,453 169,454 170,455 C172,456 174,459 177,459 C177,459 178,459 179,459 C180,458 181,458 182,459 C183,459 184,460 185,461 C186,462 186,463 186,465 C186,466 186,467 185,468 C184,470 182,471 181,472 C179,473 177,473 175,472 C170,471 164,467 160,464 L160,464 C152,458 144,451 138,444 C126,431 116,416 111,399 C107,402 103,403 98,403 C91,403 84,402 79,399 C67,393 59,383 56,371 C52,356 53,340 58,327 C59,327 59,327 59,326 C44,287 39,244 40,203 C41,184 42,163 47,145 C49,136 52,128 58,121 C61,118 65,115 69,112 C73,109 76,107 79,103 L80,102 C81,102 81,101 81,101 C86,95 91,90 97,85 C104,80 112,76 120,73 C138,65 157,61 175,57 C216,50 257,50 297,60 C315,65 333,72 351,78 C353,79 355,79 356,80 C370,85 384,90 398,95 C405,98 411,100 418,102 C419,103 420,104 421,105 C422,107 422,108 422,110 C418,120 413,130 407,138 C409,140 410,142 412,144 C414,147 415,150 415,154 C415,166 404,174 395,180 C394,180 393,181 393,181 C401,214 410,248 417,282 L417,284 C425,319 429,355 422,391 C416,422 403,452 381,475 C360,498 331,512 300,515 Z M110,311 C107,299 105,286 106,274 C107,267 109,259 113,252 C115,249 118,245 121,242 L122,241 C122,240 123,239 123,239 C123,238 123,238 123,237 C122,236 121,235 120,234 C120,234 119,233 119,232 C110,221 104,208 106,194 C108,180 117,167 127,157 C148,136 181,131 210,132 C227,133 244,136 260,141 C268,143 275,146 283,150 L284,151 C285,151 286,152 287,152 C293,155 299,158 305,159 C318,162 326,156 335,150 C338,147 341,145 344,143 L345,143 C351,139 358,137 365,137 C371,137 377,139 381,143 C382,144 383,145 383,146 C383,147 384,148 384,149 C386,155 387,161 389,168 L390,167 C394,164 399,161 401,157 C401,155 401,152 400,150 C400,150 400,149 399,149 C399,148 398,148 397,148 C396,148 395,148 393,148 C392,147 391,146 390,145 C390,144 389,143 389,141 C390,140 390,139 391,138 C398,130 404,121 408,112 L379,101 C369,97 359,93 348,90 L343,87 C324,81 305,74 286,69 C247,61 207,63 168,71 L166,72 C150,75 133,79 118,87 C111,90 104,95 98,100 C96,103 93,106 91,108 C87,112 84,116 80,119 L76,122 C71,126 66,131 63,138 C60,145 58,153 57,160 C54,180 53,199 53,219 C53,252 58,284 64,316 C69,309 76,303 86,302 C91,302 97,303 103,305 C105,307 108,309 110,311 L110,311 Z M101,350 C94,348 87,347 80,348 C79,348 79,348 78,348 C77,348 77,347 77,346 C76,346 76,345 77,344 C77,344 77,343 78,343 C86,339 94,337 103,339 L104,339 C108,339 114,341 119,343 C122,345 125,348 125,352 C126,354 125,356 124,357 C123,359 121,360 119,360 C115,360 113,358 110,356 C110,356 110,355 109,355 C107,353 104,352 101,350 Z" id="ðŸ–-Ink" fill="#000000"></path> </g>
<g transform="translate(128, 69)  scale(0.2)" id="face/Rage" stroke="none" stroke-width="1" fill="none" fill-rule="evenodd"> <path d="M156,188 C177,188 215,191 231,204 C247,216 227,254 224,254 C201,253 179,257 156,260 L151,260 C136,263 115,266 107,249 C98,218 126,188 156,188 Z M193,201 C181,200 168,199 156,201 C145,202 134,205 127,213 C129,213 131,215 132,216 C146,217 162,216 177,217 C185,217 194,218 202,217 C209,217 207,211 208,206 C203,204 198,202 193,201 Z M58,86 C73,61 117,76 140,81 C157,78 159,106 141,103 C150,117 147,136 134,146 C99,175 37,128 80,95 C80,91 86,90 89,88 L88,88 C79,86 69,84 59,87 C58,87 58,86 58,86 Z M179,136 C186,141 198,152 190,163 C180,173 166,162 160,156 C153,152 146,163 152,167 C201,204 221,138 183,131 C178,130 177,135 179,136 Z M256,59 C257,59 257,60 257,60 C248,69 236,76 226,84 C242,85 258,98 263,114 C268,139 231,151 211,143 C195,138 184,122 192,105 C183,105 174,93 181,87 C187,80 194,84 196,83 L199,81 C217,72 236,62 256,59 Z M132,110 C120,92 74,92 76,120 C78,157 151,149 132,110 Z M226,95 C217,93 210,103 205,100 C178,131 233,149 251,125 C261,113 238,95 226,95 Z M111,112 C122,108 122,125 114,128 C104,132 101,112 111,112 Z M212,114 C212,103 227,99 231,109 C236,123 213,130 212,114 Z" id="Shape" fill="#231F20"></path> </g>
<g transform="translate(120, 99)  scale(0.2)" id="facial-hair/Moustache-8" stroke="none" stroke-width="1" fill="none" fill-rule="evenodd"> <path d="M520,-59 C504,-44 515,-7 521,-17 C522,-26 525,-44 534,-47 C602,-50 588,118 461,98 C380,92 294,-25 218,46 C136,-21 42,80 -43,94 C-112,116 -216,75 -197,-10 C-193,-36 -158,-64 -137,-39 C-130,-33 -138,-11 -132,-15 C-122,-27 -124,-45 -134,-56 C-149,-75 -177,-66 -194,-53 C-267,19 -179,128 -90,121 C7,133 139,-2 206,63 C213,70 225,70 231,63 C288,-1 397,130 476,121 C561,129 628,27 579,-45 C567,-63 538,-77 520,-59 Z" id="ðŸ–-Ink" fill="#000000"></path> </g>
	</g>
</svg>